<svg xmlns="http://www.w3.org/2000/svg" version="1.1" xmlns:xlink="http://www.w3.org/1999/xlink" width="283.464px" height="283.465px"><svg version="1.1" id="SvgjsSvg1153" xmlns="http://www.w3.org/2000/svg" xmlns:xlink="http://www.w3.org/1999/xlink" x="0px" y="0px" width="283.464px" height="283.465px" viewBox="0 0 283.464 283.465" enable-background="new 0 0 283.464 283.465" xml:space="preserve">
<g>
	<g>
		<g>
			<path fill="#FCDF00" d="M140.651,14.183C70.207,14.785,13.574,72.365,14.179,142.799
				c0.597,70.455,58.181,127.077,128.626,126.482c70.46-0.595,127.072-58.189,126.483-128.626
				C268.692,70.212,211.106,13.589,140.651,14.183z"></path>
		</g>
		<g>
			<path fill="#231F20" d="M33.161,176.621c1.749,0.671,25.417-21.111,35.663-23.489c9.903-2.295,29.49,1.098,50.777,20.866
				l31.448-25.811c0,0,19.607-16.712,51.486-42.921c27.995-23.006,8.823-55.144,8.823-55.144s-67.51,56.883-69.986,58.79
				c-0.628,0.488-1.187,0.911-1.71,1.305c-12.559,7.344-24.467,5.731-33.45,2.99c-5.251-1.605-10.129-3.52-14.766-4.646
				c-15.864-3.842-31.593,1.621-36.005,17.333c-3.165,11.284,1.027,12.795-3.788,21.633
				C46.521,156.955,31.994,176.178,33.161,176.621z"></path>
			<path fill="#231F20" d="M172.01,241.625c0,0-12.797-21.25-43.62-57.416l29.75-24.807l52.701-43.959
				c0,0,19.967,26.363-13.704,56.22l-11.821,10.539c-9.966,8.691-3.698,20.909-3.594,31.241
				C181.933,233.403,176.254,238.062,172.01,241.625z"></path>
		</g>
	</g>
</g>
</svg><style>@media (prefers-color-scheme: light) { :root { filter: none; } }
@media (prefers-color-scheme: dark) { :root { filter: none; } }
</style></svg>